<?xml version="1.0" standalone="no"?>
<!DOCTYPE svg PUBLIC "-//W3C//DTD SVG 20010904//EN"
 "http://www.w3.org/TR/2001/REC-SVG-20010904/DTD/svg10.dtd">
<svg version="1.0" xmlns="http://www.w3.org/2000/svg"
 width="500.000000pt" height="500.000000pt" viewBox="0 0 500.000000 500.000000"
 preserveAspectRatio="xMidYMid meet">
<metadata>
Created by potrace 1.14, written by Peter Selinger 2001-2017
</metadata>
<g transform="translate(0.000000,500.000000) scale(0.100000,-0.100000)"
fill="#000000" stroke="none">
<path d="M0 2500 l0 -2500 2500 0 2500 0 0 2500 0 2500 -2500 0 -2500 0 0
-2500z m3295 275 c0 -1149 2 -1110 -65 -1317 -119 -372 -444 -556 -944 -535
-282 12 -486 79 -665 219 -71 56 -159 160 -198 234 -25 48 -26 54 -12 71 9 10
80 96 158 191 125 151 146 172 172 172 22 0 30 -5 35 -26 10 -40 97 -164 150
-216 116 -110 226 -152 405 -153 116 0 116 0 195 40 65 33 85 50 116 95 48 68
76 158 88 280 5 52 10 521 10 1043 l0 947 278 -2 277 -3 0 -1040z"/>
</g>
</svg>
